<svg width="138" height="80" viewBox="0 0 138 80" fill="none" xmlns="http://www.w3.org/2000/svg">
<path d="M35.6953 27.1367C36.1445 26.9609 36.6523 26.8242 37.2188 26.7266C37.8047 26.6094 38.5859 26.5508 39.5625 26.5508C40.5391 26.5508 41.5547 26.8145 42.6094 27.3418C47.043 25.1738 50.0703 22.0195 51.6914 17.8789C52.2773 16.4141 52.5703 14.9297 52.5703 13.4258C52.5703 11.9219 52.1602 10.6426 51.3398 9.58789C50.8906 9.8418 50.4414 10.125 49.9922 10.4375L48.5859 11.4336C46.0469 13.3477 43.8984 15.2422 42.1406 17.1172C39.1719 20.2617 36.0176 24.0801 32.6777 28.5723C29.3574 33.0449 25.9688 36.7559 22.5117 39.7051C19.0742 42.6543 15.793 44.7734 12.668 46.0625C10.9688 46.7266 8.82031 47.0586 6.22266 47.0586C4.52344 47.0586 3.05859 46.6484 1.82812 45.8281C0.617188 45.0078 0.0117188 44.0117 0.0117188 42.8398C0.0117188 41.6094 0.617188 40.8281 1.82812 40.4961C2.14062 40.418 2.45312 40.3789 2.76562 40.3789C3.07812 40.3789 3.40039 40.4863 3.73242 40.7012C4.04492 40.8965 4.20117 41.2188 4.20117 41.668C4.20117 42.0977 4.04492 42.459 3.73242 42.752C3.40039 43.0254 2.96094 43.1621 2.41406 43.1621C1.84766 43.1621 1.42773 43.0645 1.1543 42.8691V43.0449C1.1543 44.002 1.63281 44.7832 2.58984 45.3887C3.52734 45.9941 4.61133 46.2969 5.8418 46.2969C7.07227 46.2969 8.06836 46.209 8.83008 46.0332C9.61133 45.8379 10.4609 45.4766 11.3789 44.9492C12.2969 44.4219 13.3223 43.6797 14.4551 42.7227C15.6074 41.7656 16.9648 40.5156 18.5273 38.9727L23.9473 33.2891L31.1836 25.3789C38.0391 17.6055 44.543 12.0879 50.6953 8.82617C48.4492 6.58008 44.7383 5.45703 39.5625 5.45703C33.5273 5.45703 27.5703 7.67383 21.6914 12.1074C18.8594 14.2559 16.5156 16.5312 14.6602 18.9336C12.7852 21.4141 11.8477 23.5625 11.8477 25.3789C11.8477 27.0391 12.668 28.1035 14.3086 28.5723C14.7773 28.709 15.4316 28.7773 16.2715 28.7773C17.1113 28.7773 18.1758 28.5527 19.4648 28.1035C20.7734 27.6543 22.082 27.0195 23.3906 26.1992C24.7188 25.3789 26.0078 24.4023 27.2578 23.2695C28.5078 22.1172 29.6406 20.8477 30.6562 19.4609C32.9023 16.4727 34.25 13.3477 34.6992 10.0859C34.8164 9.46094 34.9629 9.14844 35.1387 9.14844C35.334 9.14844 35.4316 9.36328 35.4316 9.79297C35.4316 13.3867 34.3965 16.7656 32.3262 19.9297C30.4512 22.7812 27.9414 25.0859 24.7969 26.8438C21.7305 28.5625 18.6543 29.4219 15.5684 29.4219C13.5371 29.4219 12.1406 28.6602 11.3789 27.1367C11.1055 26.6289 10.9688 25.7988 10.9688 24.6465C10.9688 23.4941 11.3496 22.1074 12.1113 20.4863C12.873 18.8457 13.918 17.2734 15.2461 15.7695C16.5938 14.2461 18.1855 12.8203 20.0215 11.4922C21.8574 10.1641 23.8398 9.00195 25.9688 8.00586C30.5586 5.87695 35.3438 4.8125 40.3242 4.8125C45.3047 4.8125 49.2305 5.90625 52.1016 8.09375C55.0312 6.6875 57.4727 5.98438 59.4258 5.98438C60.0703 5.98438 60.3926 6.08203 60.3926 6.27734C60.3926 6.375 60.2168 6.45312 59.8652 6.51172C59.5137 6.55078 59.0059 6.64844 58.3418 6.80469C56.4082 7.21484 54.582 7.86914 52.8633 8.76758C54.6992 10.5254 55.6172 12.6934 55.6172 15.2715C55.6172 17.7715 54.4453 20.2812 52.1016 22.8008C49.9336 25.125 47.2383 26.9414 44.0156 28.25C45.5781 29.6367 46.3594 31.5996 46.3594 34.1387C46.3594 36.3066 45.5488 38.4062 43.9277 40.4375C41.5059 43.4844 38.1758 45.5254 33.9375 46.5605C32.5703 46.8926 31.3008 47.0586 30.1289 47.0586C28.957 47.0586 28.0586 46.9609 27.4336 46.7656C26.8086 46.5508 26.3105 46.2871 25.9395 45.9746C25.2559 45.4082 24.9141 44.7441 24.9141 43.9824C24.9141 43.2012 25.1191 42.4199 25.5293 41.6387C25.9395 40.8379 26.4961 40.0469 27.1992 39.2656C27.9219 38.4844 28.7715 37.7324 29.748 37.0098C30.7246 36.2871 31.7695 35.6523 32.8828 35.1055C35.3633 33.875 37.7656 33.2598 40.0898 33.2598C40.5 33.2598 40.7051 33.3867 40.7051 33.6406C40.7051 33.8945 40.2949 34.0215 39.4746 34.0215C38.6738 34.0215 37.7266 34.168 36.6328 34.4609C35.5586 34.7539 34.5039 35.1543 33.4688 35.6621C32.4336 36.1699 31.457 36.7559 30.5391 37.4199C29.6211 38.084 28.8203 38.7773 28.1367 39.5C26.6328 41.0625 25.8809 42.5078 25.8809 43.8359C25.8809 45.4375 27.2188 46.2383 29.8945 46.2383C31.7695 46.2383 33.7422 45.5352 35.8125 44.1289C39.1328 41.9023 41.3984 38.7969 42.6094 34.8125C43 33.4844 43.1953 32.2637 43.1953 31.1504C43.1953 30.0176 43.0488 29.2168 42.7559 28.748C40.7441 29.4316 39.0449 29.7734 37.6582 29.7734C36.291 29.7734 35.373 29.627 34.9043 29.334C34.4551 29.041 34.2305 28.7578 34.2305 28.4844C34.2305 28.2109 34.3574 27.9668 34.6113 27.752C34.8848 27.5176 35.2461 27.3125 35.6953 27.1367ZM41.7012 27.752C41.0957 27.4004 40.3828 27.2246 39.5625 27.2246C38.7617 27.2246 38.1562 27.2539 37.7461 27.3125C37.3555 27.3711 37.0039 27.4492 36.6914 27.5469C36.0469 27.7227 35.7246 27.918 35.7246 28.1328C35.7246 28.6016 36.291 28.8359 37.4238 28.8359C38.5566 28.8359 39.9824 28.4746 41.7012 27.752ZM49.377 45.2715C49.377 45.916 49.8457 46.2383 50.7832 46.2383C51.7207 46.2383 52.7168 45.9941 53.7715 45.5059C54.8457 44.998 55.9004 44.3633 56.9355 43.6016C57.9902 42.8398 59.0059 42.0098 59.9824 41.1113C60.959 40.1934 61.8477 39.3242 62.6484 38.5039L64.6699 36.3359C65.2168 35.7109 65.5879 35.3008 65.7832 35.1055L66.3691 35.6035C66.1543 35.8184 65.7539 36.248 65.168 36.8926C64.6016 37.5371 63.8984 38.2793 63.0586 39.1191C62.2383 39.959 61.3105 40.8477 60.2754 41.7852C59.2598 42.7227 58.1953 43.582 57.082 44.3633C54.4844 46.1602 52.209 47.0586 50.2559 47.0586C49.4355 47.0586 48.7617 46.834 48.2344 46.3848C47.6875 45.9355 47.4141 45.457 47.4141 44.9492C47.4141 44.4219 47.4434 44.002 47.502 43.6895C47.541 43.377 47.6387 43.0254 47.7949 42.6348C47.9512 42.2246 48.1758 41.7559 48.4688 41.2285C48.7617 40.6816 49.1523 40.0273 49.6406 39.2656L54.123 32.6445L76.7695 0.271484C78.1758 0.466797 79.5332 0.466797 80.8418 0.271484C62.209 26.1699 52.5605 39.6172 51.8965 40.6133C51.2324 41.5898 50.7441 42.332 50.4316 42.8398C50.1191 43.3281 49.8848 43.7285 49.7285 44.041C49.4941 44.5098 49.377 44.9199 49.377 45.2715ZM63.2051 45.2715C63.2051 45.9746 63.6738 46.3262 64.6113 46.3262C65.9199 46.3262 67.3262 45.8281 68.8301 44.832C72.0723 42.6641 75.4512 39.4219 78.9668 35.1055C78.9668 35.1055 81.1836 32.4395 85.6172 27.1074C86.5547 27.2246 87.4043 27.2832 88.166 27.2832C88.9277 27.2832 89.5625 27.2539 90.0703 27.1953L87.1992 30.5059L76.8281 43.1328C76.1445 43.9727 75.8027 44.6562 75.8027 45.1836C75.8027 45.8867 76.2715 46.2383 77.209 46.2383C78.1465 46.2383 79.1133 45.9941 80.1094 45.5059C81.125 44.998 82.1309 44.3633 83.127 43.6016C84.1426 42.8398 85.1289 42.0098 86.0859 41.1113C87.043 40.1934 87.9121 39.3242 88.6934 38.5039L91.7695 35.1055L92.3555 35.6035L91.2129 36.8926C90.6465 37.5371 89.9531 38.2793 89.1328 39.1191L86.4082 41.7852C82.6777 45.3008 79.582 47.0586 77.1211 47.0586C76.3203 47.0586 75.6562 46.8438 75.1289 46.4141C74.6211 45.9648 74.3477 45.3691 74.3086 44.627C74.2695 43.2012 74.7676 41.5898 75.8027 39.793C71.3105 44.6367 67.502 47.0586 64.377 47.0586C62.6191 47.0586 61.4961 46.4336 61.0078 45.1836C60.8711 44.832 60.793 44.3828 60.7734 43.8359C60.7539 43.2891 60.8906 42.6348 61.1836 41.873C61.457 41.1113 61.877 40.291 62.4434 39.4121C63.0098 38.5137 63.7031 37.5469 64.5234 36.5117L69.7969 30.125C70.6172 29.1094 71.4863 28.1035 72.4043 27.1074C73.166 27.2246 73.7812 27.2832 74.25 27.2832H75.2461C76.0859 27.2832 76.623 27.2539 76.8574 27.1953C74.5723 29.6953 72.9707 31.502 72.0527 32.6152L66.2227 39.6172C64.1719 42 63.166 43.8848 63.2051 45.2715ZM100.617 41.6094C100.852 41.6484 101.145 41.668 101.496 41.668C101.867 41.668 102.307 41.5312 102.814 41.2578C103.322 40.9844 103.84 40.6328 104.367 40.2031C104.914 39.7734 105.451 39.3047 105.979 38.7969C106.506 38.2695 106.984 37.7715 107.414 37.3027C107.863 36.8145 108.254 36.375 108.586 35.9844L109.26 35.1055L109.904 35.6035C109.67 35.8379 109.367 36.1602 108.996 36.5703L107.766 37.9766C105.051 40.9062 102.902 42.3711 101.32 42.3711H100.822C100.666 42.3711 100.51 42.3516 100.354 42.3125C98.7129 45.8867 95.2266 47.6738 89.8945 47.6738C87.5703 47.6738 85.8809 47.1172 84.8262 46.0039C84.377 45.5156 84.1523 44.8906 84.1523 44.1289C84.1523 43.3672 84.3379 42.7227 84.709 42.1953C85.0605 41.6484 85.4805 41.1992 85.9688 40.8477C86.9648 40.125 87.8633 39.7637 88.6641 39.7637C89.4453 39.7637 89.8359 40.1348 89.8359 40.877C89.7773 41.3848 89.3477 41.7656 88.5469 42.0195C88.293 42.0977 88.0488 42.1367 87.8145 42.1367C87.5605 42.1367 87.3262 42.0586 87.1113 41.9023C86.877 41.7266 86.6914 41.5996 86.5547 41.5215C86.4375 41.6387 86.291 41.7754 86.1152 41.9316C85.9199 42.0879 85.7344 42.2734 85.5586 42.4883C85.1289 43.0156 84.9141 43.5625 84.9141 44.1289C84.9141 44.6758 85.0996 45.1152 85.4707 45.4473C85.8418 45.7793 86.2812 46.0332 86.7891 46.209C87.5508 46.4824 88.3516 46.6191 89.1914 46.6191C90.0117 46.6191 90.8613 46.4434 91.7402 46.0918C92.6387 45.7402 93.5176 45.1543 94.377 44.334C96.7402 42.0879 98.0195 38.7578 98.2148 34.3438C98.332 31.375 98.6934 29.0508 99.2988 27.3711C99.3184 27.3125 99.3281 27.2246 99.3281 27.1074L92.4141 35.6035C92.0234 36.0723 91.7402 36.375 91.5645 36.5117C91.3691 36.6484 91.2715 36.7168 91.2715 36.7168C91.0371 36.7363 90.8809 36.6777 90.8027 36.541C90.7637 36.4434 90.8516 36.2578 91.0664 35.9844C96.1055 29.9688 98.9375 26.5508 99.5625 25.7305C99.875 24.207 100.383 23.4453 101.086 23.4453C101.418 23.4453 101.691 23.5332 101.906 23.709C102.141 23.8848 102.258 24.1094 102.258 24.3828C102.238 24.7539 101.936 25.2812 101.35 25.9648C100.783 26.6289 100.432 27.0586 100.295 27.2539C100.178 27.4297 100.1 27.5859 100.061 27.7227C100.021 27.8398 100.002 27.957 100.002 28.0742V28.4258C99.9824 28.9531 100.031 29.5781 100.148 30.3008L100.881 35.1641C101.311 37.8203 101.223 39.9688 100.617 41.6094ZM105.715 46.4434C105.188 46.3457 104.602 46.2969 103.957 46.2969C102.844 46.2969 101.926 46.3945 101.203 46.5898L133.635 0.271484C134.943 0.466797 136.301 0.466797 137.707 0.271484L108.645 40.6133L108.791 40.9355C110.275 39.2168 111.652 37.6934 112.922 36.3652L116.408 32.8496C118.4 30.916 120.012 29.5488 121.242 28.748C123.098 27.5371 124.855 26.9316 126.516 26.9316C128.254 26.9316 129.348 27.5566 129.797 28.8066C130.676 31.2285 127.932 35.8574 121.564 42.6934L120.422 43.9531C119.797 44.6562 119.484 45.1934 119.484 45.5645C119.484 45.7598 119.699 45.9258 120.129 46.0625C120.559 46.1797 121.164 46.2383 121.945 46.2383C122.727 46.2383 123.645 45.9941 124.699 45.5059C125.754 44.998 126.779 44.3633 127.775 43.6016C128.771 42.8398 129.719 42 130.617 41.082C131.516 40.1641 132.316 39.2949 133.02 38.4746C133.742 37.6543 134.348 36.9316 134.836 36.3066C135.324 35.6816 135.656 35.2812 135.832 35.1055L136.477 35.6035C136.281 35.8184 135.92 36.248 135.393 36.8926C134.885 37.5371 134.25 38.2891 133.488 39.1484C132.746 39.9883 131.896 40.877 130.939 41.8145C130.002 42.752 128.996 43.6016 127.922 44.3633C125.461 46.1602 123.225 47.0586 121.213 47.0586C119.611 47.0586 118.43 46.6191 117.668 45.7402C117.434 45.4668 117.316 45.1445 117.316 44.7734C117.316 44.4023 117.365 43.9824 117.463 43.5137C117.58 43.0254 117.854 42.4102 118.283 41.668C119.279 39.9883 120.598 38.2305 122.238 36.3945C123.879 34.5391 124.963 33.2793 125.49 32.6152C126.018 31.9512 126.438 31.375 126.75 30.8867C127.336 29.9492 127.629 29.2266 127.629 28.7188C127.629 28.0156 127.17 27.6641 126.252 27.6641C125.021 27.6641 123.605 28.2109 122.004 29.3047C118.117 31.9023 113.586 36.4238 108.41 42.8691L105.715 46.4434ZM29.0998 75.568V77.728C29.0998 78.032 29.1318 78.252 29.1958 78.388C29.2598 78.524 29.3718 78.616 29.5318 78.664C29.6918 78.712 29.9518 78.744 30.3118 78.76V79C29.8958 78.976 29.3078 78.964 28.5478 78.964C27.8598 78.964 27.3478 78.976 27.0118 79V78.76C27.2998 78.744 27.5078 78.712 27.6358 78.664C27.7718 78.616 27.8638 78.524 27.9118 78.388C27.9598 78.252 27.9838 78.032 27.9838 77.728V71.776C27.9838 71.472 27.9598 71.252 27.9118 71.116C27.8638 70.98 27.7718 70.888 27.6358 70.84C27.5078 70.792 27.2998 70.76 27.0118 70.744V70.504C27.3478 70.528 27.8358 70.54 28.4758 70.54L29.7718 70.528C29.9238 70.52 30.0958 70.516 30.2878 70.516C31.2238 70.516 31.9398 70.732 32.4358 71.164C32.9318 71.588 33.1798 72.16 33.1798 72.88C33.1798 73.32 33.0798 73.744 32.8798 74.152C32.6878 74.552 32.3558 74.888 31.8838 75.16C31.4198 75.432 30.7998 75.568 30.0238 75.568H29.0998ZM29.9878 70.744C29.7398 70.744 29.5518 70.772 29.4238 70.828C29.3038 70.884 29.2198 70.984 29.1718 71.128C29.1238 71.272 29.0998 71.488 29.0998 71.776V75.328H29.9038C30.6878 75.328 31.2278 75.12 31.5238 74.704C31.8278 74.28 31.9798 73.716 31.9798 73.012C31.9798 72.236 31.8238 71.664 31.5118 71.296C31.2078 70.928 30.6998 70.744 29.9878 70.744ZM42.1073 70.744C41.8193 70.76 41.6073 70.792 41.4713 70.84C41.3433 70.888 41.2553 70.98 41.2073 71.116C41.1593 71.252 41.1353 71.472 41.1353 71.776V77.728C41.1353 78.032 41.1593 78.252 41.2073 78.388C41.2553 78.524 41.3433 78.616 41.4713 78.664C41.6073 78.712 41.8193 78.744 42.1073 78.76V79C41.7713 78.976 41.2593 78.964 40.5713 78.964C39.9233 78.964 39.4153 78.976 39.0473 79V78.76C39.3353 78.744 39.5433 78.712 39.6713 78.664C39.8073 78.616 39.8993 78.524 39.9473 78.388C39.9953 78.252 40.0193 78.032 40.0193 77.728V74.848H36.1193V77.728C36.1193 78.032 36.1433 78.252 36.1913 78.388C36.2393 78.524 36.3273 78.616 36.4553 78.664C36.5913 78.712 36.8033 78.744 37.0913 78.76V79C36.7233 78.976 36.2153 78.964 35.5673 78.964C34.8793 78.964 34.3673 78.976 34.0313 79V78.76C34.3193 78.744 34.5273 78.712 34.6553 78.664C34.7913 78.616 34.8833 78.524 34.9313 78.388C34.9793 78.252 35.0033 78.032 35.0033 77.728V71.776C35.0033 71.472 34.9793 71.252 34.9313 71.116C34.8833 70.98 34.7913 70.888 34.6553 70.84C34.5273 70.792 34.3193 70.76 34.0313 70.744V70.504C34.3673 70.528 34.8793 70.54 35.5673 70.54C36.2073 70.54 36.7153 70.528 37.0913 70.504V70.744C36.8033 70.76 36.5913 70.792 36.4553 70.84C36.3273 70.888 36.2393 70.98 36.1913 71.116C36.1433 71.252 36.1193 71.472 36.1193 71.776V74.608H40.0193V71.776C40.0193 71.472 39.9953 71.252 39.9473 71.116C39.8993 70.98 39.8073 70.888 39.6713 70.84C39.5433 70.792 39.3353 70.76 39.0473 70.744V70.504C39.4153 70.528 39.9233 70.54 40.5713 70.54C41.2593 70.54 41.7713 70.528 42.1073 70.504V70.744ZM46.9676 70.336C47.7276 70.336 48.3916 70.508 48.9596 70.852C49.5356 71.196 49.9796 71.696 50.2916 72.352C50.6116 73 50.7716 73.776 50.7716 74.68C50.7716 75.56 50.6076 76.34 50.2796 77.02C49.9596 77.7 49.5076 78.228 48.9236 78.604C48.3476 78.98 47.6916 79.168 46.9556 79.168C46.1956 79.168 45.5276 78.996 44.9516 78.652C44.3836 78.308 43.9396 77.812 43.6196 77.164C43.3076 76.508 43.1516 75.728 43.1516 74.824C43.1516 73.944 43.3116 73.164 43.6316 72.484C43.9596 71.804 44.4116 71.276 44.9876 70.9C45.5716 70.524 46.2316 70.336 46.9676 70.336ZM46.9196 70.552C46.4076 70.552 45.9556 70.732 45.5636 71.092C45.1796 71.444 44.8796 71.94 44.6636 72.58C44.4556 73.22 44.3516 73.952 44.3516 74.776C44.3516 75.608 44.4676 76.34 44.6996 76.972C44.9396 77.604 45.2596 78.092 45.6596 78.436C46.0596 78.78 46.5076 78.952 47.0036 78.952C47.5156 78.952 47.9636 78.776 48.3476 78.424C48.7396 78.064 49.0396 77.564 49.2476 76.924C49.4636 76.284 49.5716 75.552 49.5716 74.728C49.5716 73.896 49.4516 73.164 49.2116 72.532C48.9796 71.9 48.6636 71.412 48.2636 71.068C47.8636 70.724 47.4156 70.552 46.9196 70.552ZM58.5142 70.504C58.4582 71.072 58.4302 71.584 58.4302 72.04C58.4302 72.44 58.4422 72.768 58.4662 73.024H58.1902C58.1262 72.408 58.0462 71.952 57.9502 71.656C57.8542 71.352 57.6862 71.132 57.4462 70.996C57.2062 70.852 56.8382 70.78 56.3422 70.78H55.6942V77.608C55.6942 77.944 55.7262 78.188 55.7902 78.34C55.8542 78.492 55.9662 78.596 56.1262 78.652C56.2862 78.708 56.5462 78.744 56.9062 78.76V79C56.4902 78.976 55.9022 78.964 55.1422 78.964C54.3422 78.964 53.7502 78.976 53.3662 79V78.76C53.7262 78.744 53.9862 78.708 54.1462 78.652C54.3062 78.596 54.4182 78.492 54.4822 78.34C54.5462 78.188 54.5782 77.944 54.5782 77.608V70.78H53.9302C53.4342 70.78 53.0662 70.852 52.8262 70.996C52.5862 71.132 52.4182 71.352 52.3222 71.656C52.2262 71.952 52.1462 72.408 52.0822 73.024H51.8062C51.8302 72.768 51.8422 72.44 51.8422 72.04C51.8422 71.584 51.8142 71.072 51.7582 70.504C52.4222 70.528 53.5502 70.54 55.1422 70.54C56.7262 70.54 57.8502 70.528 58.5142 70.504ZM63.3153 70.336C64.0753 70.336 64.7393 70.508 65.3073 70.852C65.8833 71.196 66.3273 71.696 66.6393 72.352C66.9593 73 67.1193 73.776 67.1193 74.68C67.1193 75.56 66.9553 76.34 66.6273 77.02C66.3073 77.7 65.8553 78.228 65.2713 78.604C64.6953 78.98 64.0393 79.168 63.3033 79.168C62.5433 79.168 61.8753 78.996 61.2993 78.652C60.7313 78.308 60.2873 77.812 59.9673 77.164C59.6553 76.508 59.4993 75.728 59.4993 74.824C59.4993 73.944 59.6593 73.164 59.9793 72.484C60.3073 71.804 60.7593 71.276 61.3353 70.9C61.9193 70.524 62.5793 70.336 63.3153 70.336ZM63.2673 70.552C62.7553 70.552 62.3033 70.732 61.9113 71.092C61.5273 71.444 61.2273 71.94 61.0113 72.58C60.8033 73.22 60.6993 73.952 60.6993 74.776C60.6993 75.608 60.8153 76.34 61.0473 76.972C61.2873 77.604 61.6073 78.092 62.0073 78.436C62.4073 78.78 62.8553 78.952 63.3513 78.952C63.8633 78.952 64.3113 78.776 64.6953 78.424C65.0873 78.064 65.3873 77.564 65.5953 76.924C65.8113 76.284 65.9193 75.552 65.9193 74.728C65.9193 73.896 65.7993 73.164 65.5593 72.532C65.3273 71.9 65.0113 71.412 64.6113 71.068C64.2113 70.724 63.7633 70.552 63.2673 70.552ZM72.2698 70.336C72.7418 70.336 73.1298 70.404 73.4338 70.54C73.7378 70.668 74.0698 70.86 74.4298 71.116C74.5338 71.196 74.6138 71.236 74.6698 71.236C74.8218 71.236 74.9218 70.992 74.9698 70.504H75.2458C75.2138 71.024 75.1978 71.944 75.1978 73.264H74.9218C74.8498 72.84 74.7738 72.492 74.6938 72.22C74.6138 71.94 74.4898 71.696 74.3218 71.488C74.0898 71.2 73.7858 70.972 73.4098 70.804C73.0418 70.636 72.6538 70.552 72.2458 70.552C71.7178 70.552 71.2538 70.724 70.8538 71.068C70.4538 71.412 70.1458 71.904 69.9298 72.544C69.7138 73.176 69.6058 73.916 69.6058 74.764C69.6058 76.204 69.8338 77.26 70.2898 77.932C70.7538 78.596 71.4778 78.928 72.4618 78.928C72.9418 78.928 73.3578 78.804 73.7098 78.556C73.8538 78.46 73.9458 78.368 73.9858 78.28C74.0338 78.184 74.0578 78.056 74.0578 77.896V76.744C74.0578 76.408 74.0258 76.164 73.9618 76.012C73.8978 75.86 73.7858 75.756 73.6258 75.7C73.4658 75.644 73.2058 75.608 72.8458 75.592V75.352C73.2618 75.376 73.8258 75.388 74.5378 75.388C75.0818 75.388 75.4978 75.376 75.7858 75.352V75.592C75.6018 75.608 75.4658 75.64 75.3778 75.688C75.2978 75.736 75.2418 75.828 75.2098 75.964C75.1858 76.1 75.1738 76.32 75.1738 76.624V79H74.9338C74.9258 78.84 74.8938 78.688 74.8378 78.544C74.7818 78.392 74.7058 78.316 74.6098 78.316C74.5618 78.316 74.5138 78.328 74.4658 78.352C74.4178 78.376 74.3338 78.432 74.2138 78.52C73.9338 78.736 73.6418 78.896 73.3378 79C73.0418 79.112 72.7098 79.168 72.3418 79.168C71.5178 79.168 70.8098 79 70.2178 78.664C69.6338 78.32 69.1858 77.828 68.8738 77.188C68.5618 76.548 68.4058 75.784 68.4058 74.896C68.4058 73.984 68.5698 73.184 68.8978 72.496C69.2338 71.8 69.6938 71.268 70.2778 70.9C70.8618 70.524 71.5258 70.336 72.2698 70.336ZM84.1153 78.4C83.9313 78.672 83.7473 78.868 83.5633 78.988C83.3793 79.108 83.1353 79.168 82.8313 79.168C82.5033 79.168 82.2313 79.072 82.0153 78.88C81.8073 78.688 81.6513 78.352 81.5473 77.872L81.2833 76.672C81.1873 76.256 81.0953 75.936 81.0073 75.712C80.9273 75.488 80.8033 75.308 80.6353 75.172C80.4673 75.036 80.2313 74.968 79.9273 74.968H78.7873V77.728C78.7873 78.032 78.8113 78.252 78.8593 78.388C78.9073 78.524 78.9953 78.616 79.1233 78.664C79.2593 78.712 79.4713 78.744 79.7593 78.76V79C79.3913 78.976 78.8833 78.964 78.2353 78.964C77.5473 78.964 77.0353 78.976 76.6993 79V78.76C76.9873 78.744 77.1953 78.712 77.3233 78.664C77.4593 78.616 77.5513 78.524 77.5993 78.388C77.6473 78.252 77.6713 78.032 77.6713 77.728V71.776C77.6713 71.472 77.6473 71.252 77.5993 71.116C77.5513 70.98 77.4593 70.888 77.3233 70.84C77.1953 70.792 76.9873 70.76 76.6993 70.744V70.504C77.0353 70.528 77.5233 70.54 78.1633 70.54L79.4593 70.528C79.6113 70.52 79.7833 70.516 79.9753 70.516C80.9033 70.516 81.6153 70.712 82.1113 71.104C82.6153 71.488 82.8673 71.988 82.8673 72.604C82.8673 72.916 82.7913 73.232 82.6393 73.552C82.4953 73.864 82.2473 74.148 81.8953 74.404C81.5513 74.652 81.0993 74.82 80.5393 74.908L80.6833 74.932C81.2113 75.02 81.5953 75.18 81.8353 75.412C82.0753 75.644 82.2513 76.012 82.3633 76.516L82.6633 77.74C82.7433 78.108 82.8273 78.364 82.9153 78.508C83.0033 78.652 83.1233 78.724 83.2753 78.724C83.4113 78.724 83.5233 78.688 83.6113 78.616C83.7073 78.544 83.8153 78.428 83.9353 78.268L84.1153 78.4ZM79.6753 70.744C79.4273 70.744 79.2393 70.772 79.1113 70.828C78.9913 70.884 78.9073 70.984 78.8593 71.128C78.8113 71.272 78.7873 71.488 78.7873 71.776V74.728H79.5913C80.3833 74.728 80.9273 74.552 81.2233 74.2C81.5193 73.848 81.6673 73.36 81.6673 72.736C81.6673 72.08 81.5113 71.584 81.1993 71.248C80.8873 70.912 80.3793 70.744 79.6753 70.744ZM90.7806 77.992C90.9726 78.488 91.2486 78.744 91.6086 78.76V79C91.2886 78.976 90.8606 78.964 90.3246 78.964C89.6366 78.964 89.1246 78.976 88.7886 79V78.76C89.0926 78.744 89.3086 78.708 89.4366 78.652C89.5726 78.588 89.6406 78.476 89.6406 78.316C89.6406 78.18 89.5926 77.992 89.4966 77.752L88.7646 75.784H85.8606L85.3686 77.056C85.2086 77.488 85.1286 77.816 85.1286 78.04C85.1286 78.288 85.2126 78.468 85.3806 78.58C85.5566 78.692 85.8206 78.752 86.1726 78.76V79C85.7166 78.976 85.2566 78.964 84.7926 78.964C84.4326 78.964 84.1326 78.976 83.8926 79V78.76C84.2926 78.664 84.6086 78.316 84.8406 77.716L87.6606 70.444H87.8526L90.7806 77.992ZM88.6686 75.544L87.3246 71.956L85.9566 75.544H88.6686ZM93.8928 75.568V77.728C93.8928 78.032 93.9248 78.252 93.9888 78.388C94.0528 78.524 94.1648 78.616 94.3248 78.664C94.4848 78.712 94.7448 78.744 95.1048 78.76V79C94.6888 78.976 94.1008 78.964 93.3408 78.964C92.6528 78.964 92.1408 78.976 91.8048 79V78.76C92.0928 78.744 92.3008 78.712 92.4288 78.664C92.5648 78.616 92.6568 78.524 92.7048 78.388C92.7528 78.252 92.7768 78.032 92.7768 77.728V71.776C92.7768 71.472 92.7528 71.252 92.7048 71.116C92.6568 70.98 92.5648 70.888 92.4288 70.84C92.3008 70.792 92.0928 70.76 91.8048 70.744V70.504C92.1408 70.528 92.6288 70.54 93.2688 70.54L94.5648 70.528C94.7168 70.52 94.8888 70.516 95.0808 70.516C96.0168 70.516 96.7328 70.732 97.2288 71.164C97.7248 71.588 97.9728 72.16 97.9728 72.88C97.9728 73.32 97.8728 73.744 97.6728 74.152C97.4808 74.552 97.1488 74.888 96.6768 75.16C96.2128 75.432 95.5928 75.568 94.8168 75.568H93.8928ZM94.7808 70.744C94.5328 70.744 94.3448 70.772 94.2168 70.828C94.0968 70.884 94.0128 70.984 93.9648 71.128C93.9168 71.272 93.8928 71.488 93.8928 71.776V75.328H94.6968C95.4808 75.328 96.0208 75.12 96.3168 74.704C96.6208 74.28 96.7728 73.716 96.7728 73.012C96.7728 72.236 96.6168 71.664 96.3048 71.296C96.0008 70.928 95.4928 70.744 94.7808 70.744ZM106.9 70.744C106.612 70.76 106.4 70.792 106.264 70.84C106.136 70.888 106.048 70.98 106 71.116C105.952 71.252 105.928 71.472 105.928 71.776V77.728C105.928 78.032 105.952 78.252 106 78.388C106.048 78.524 106.136 78.616 106.264 78.664C106.4 78.712 106.612 78.744 106.9 78.76V79C106.564 78.976 106.052 78.964 105.364 78.964C104.716 78.964 104.208 78.976 103.84 79V78.76C104.128 78.744 104.336 78.712 104.464 78.664C104.6 78.616 104.692 78.524 104.74 78.388C104.788 78.252 104.812 78.032 104.812 77.728V74.848H100.912V77.728C100.912 78.032 100.936 78.252 100.984 78.388C101.032 78.524 101.12 78.616 101.248 78.664C101.384 78.712 101.596 78.744 101.884 78.76V79C101.516 78.976 101.008 78.964 100.36 78.964C99.6723 78.964 99.1603 78.976 98.8243 79V78.76C99.1123 78.744 99.3203 78.712 99.4483 78.664C99.5843 78.616 99.6763 78.524 99.7243 78.388C99.7723 78.252 99.7963 78.032 99.7963 77.728V71.776C99.7963 71.472 99.7723 71.252 99.7243 71.116C99.6763 70.98 99.5843 70.888 99.4483 70.84C99.3203 70.792 99.1123 70.76 98.8243 70.744V70.504C99.1603 70.528 99.6723 70.54 100.36 70.54C101 70.54 101.508 70.528 101.884 70.504V70.744C101.596 70.76 101.384 70.792 101.248 70.84C101.12 70.888 101.032 70.98 100.984 71.116C100.936 71.252 100.912 71.472 100.912 71.776V74.608H104.812V71.776C104.812 71.472 104.788 71.252 104.74 71.116C104.692 70.98 104.6 70.888 104.464 70.84C104.336 70.792 104.128 70.76 103.84 70.744V70.504C104.208 70.528 104.716 70.54 105.364 70.54C106.052 70.54 106.564 70.528 106.9 70.504V70.744ZM113.558 70.54C113.918 70.54 114.218 70.528 114.458 70.504V70.744C114.298 70.784 114.142 70.888 113.99 71.056C113.838 71.216 113.674 71.468 113.498 71.812L111.614 75.544V77.728C111.614 78.032 111.638 78.252 111.686 78.388C111.734 78.524 111.822 78.616 111.95 78.664C112.086 78.712 112.298 78.744 112.586 78.76V79C112.218 78.976 111.71 78.964 111.062 78.964C110.374 78.964 109.862 78.976 109.526 79V78.76C109.814 78.744 110.022 78.712 110.15 78.664C110.286 78.616 110.378 78.524 110.426 78.388C110.474 78.252 110.498 78.032 110.498 77.728V75.928L108.062 71.428C107.918 71.164 107.79 70.988 107.678 70.9C107.574 70.804 107.47 70.756 107.366 70.756V70.504C107.678 70.528 108.03 70.54 108.422 70.54C109.198 70.54 109.758 70.528 110.102 70.504V70.756C109.542 70.756 109.262 70.908 109.262 71.212C109.262 71.332 109.302 71.472 109.382 71.632L111.374 75.46L112.91 72.412C113.126 71.988 113.234 71.644 113.234 71.38C113.234 71.156 113.146 70.996 112.97 70.9C112.794 70.804 112.53 70.752 112.178 70.744V70.504C112.634 70.528 113.094 70.54 113.558 70.54Z" fill="black"/>
</svg>
